<?xml version="1.0" encoding="UTF-8" standalone="no"?>
<!-- Created with Inkscape (http://www.inkscape.org/) -->

<svg
   width="128"
   height="128"
   viewBox="0 0 33.866667 33.866667"
   version="1.1"
   id="svg1"
   xmlns="http://www.w3.org/2000/svg"
   xmlns:svg="http://www.w3.org/2000/svg">
  <defs
     id="defs1" />
  <g
     id="layer1">
    <g
       id="g4"
       transform="matrix(2.6386617,0,0,2.6386617,-11.995428,-23.572361)">
      <path
         style="font-size:13.075px;font-family:Caprasimo;-inkscape-font-specification:Caprasimo;stroke-width:1.08958"
         d="m 14.296442,11.87716 q -0.580969,0 -0.964025,-0.293677 -0.383057,-0.293676 -0.383057,-0.912951 0,-0.612891 0.383057,-0.912952 0.389441,-0.3000611 0.964025,-0.3000611 0.587354,0 0.970411,0.2936768 0.389441,0.2936763 0.389441,0.9193363 0,0.619275 -0.389441,0.912951 -0.389441,0.293677 -0.970411,0.293677 z"
         id="path3" />
      <path
         style="font-size:13.075px;font-family:Caprasimo;-inkscape-font-specification:Caprasimo;stroke-width:1.08958"
         d="m 8.6209435,11.87716 q -0.580969,0 -0.964026,-0.293677 -0.383057,-0.293676 -0.383057,-0.912951 0,-0.612891 0.383057,-0.912952 0.389441,-0.3000611 0.964026,-0.3000611 0.5809693,0 0.95764,0.3000611 0.3830572,0.300061 0.3830572,0.912952 0,0.61289 -0.3830572,0.912951 -0.3830547,0.293677 -0.95764,0.293677 z"
         id="path2" />
      <path
         style="font-size:13.075px;font-family:Caprasimo;-inkscape-font-specification:Caprasimo;stroke-width:1.08958"
         d="m 12.414412,13.013561 q 0,-0.370288 0.217065,-0.529895 0.217066,-0.165991 0.561817,-0.165991 h 1.972741 q 0.344751,0 0.555433,0.165991 0.217065,0.165992 0.217065,0.529895 0,0.351136 -0.191528,0.485205 -0.185144,0.13407 -0.4469,0.287293 -0.248987,0.146838 -0.376672,0.383057 -0.121301,0.229834 -0.217066,0.491589 l -1.793981,4.820129 q -0.102149,0.274524 -0.165992,0.517127 -0.05746,0.242602 -0.05746,0.542663 0,0.26814 -0.165991,0.440515 -0.159607,0.172376 -0.434131,0.172376 H 9.6691727 q -0.2936767,0 -0.4341308,-0.185144 -0.1404541,-0.185144 -0.1404541,-0.459668 0,-0.22345 -0.063843,-0.434131 Q 8.9669022,19.857507 8.8902909,19.65321 L 7.0005448,14.526635 Q 6.8983964,14.252111 6.8026322,14.111657 6.7132523,13.971203 6.4642655,13.805212 6.1961259,13.626452 6.0556718,13.498766 5.921602,13.364697 5.921602,13.013561 q 0,-0.370288 0.2170654,-0.529895 0.2170654,-0.165991 0.5618164,-0.165991 h 3.6645752 q 0.344751,0 0.555432,0.165991 0.217065,0.159607 0.217065,0.529895 0,0.274524 -0.134069,0.421363 -0.127686,0.140454 -0.300061,0.236218 -0.165992,0.09576 -0.300061,0.217065 -0.127686,0.121302 -0.127686,0.351136 0,0.114917 0.02554,0.229834 0.02554,0.114917 0.06384,0.223449 l 1.379004,3.868872 1.506689,-4.098706 q 0.05746,-0.159607 0.05746,-0.287292 0,-0.197913 -0.13407,-0.300061 -0.13407,-0.108533 -0.31283,-0.204297 -0.178759,-0.09576 -0.312829,-0.236218 -0.13407,-0.146839 -0.134071,-0.421363 z"
         id="text1" />
    </g>
  </g>
</svg>
